<svg xmlns="http://www.w3.org/2000/svg" viewBox="0 0 400 300" width="400" height="300">
  <defs>
    <linearGradient id="bg-default" x1="0" y1="0" x2="1" y2="1">
      <stop offset="0%" stop-color="#3b82f6" stop-opacity="0.08"/>
      <stop offset="100%" stop-color="#3b82f6" stop-opacity="0.02"/>
    </linearGradient>
  </defs>
  <rect width="400" height="300" fill="url(#bg-default)"/>
  <!-- 顶栏 -->
  <rect x="0" y="0" width="400" height="48" fill="#3b82f6"/>
  <circle cx="24" cy="24" r="8" fill="rgba(255,255,255,0.5)"/>
  <rect x="48" y="20" width="80" height="8" rx="4" fill="rgba(255,255,255,0.7)"/>
  <!-- hero 标题 -->
  <rect x="32" y="80" width="280" height="20" rx="4" fill="#3b82f6" opacity="0.85"/>
  <rect x="32" y="110" width="200" height="14" rx="4" fill="#3b82f6" opacity="0.55"/>
  <!-- 卡片 -->
  <rect x="32" y="148" width="160" height="120" rx="8" fill="white" stroke="#3b82f6" stroke-width="1.5" opacity="0.9"/>
  <rect x="208" y="148" width="160" height="120" rx="8" fill="white" stroke="#3b82f6" stroke-width="1.5" opacity="0.9"/>
  <rect x="48" y="168" width="80" height="8" rx="4" fill="#3b82f6" opacity="0.7"/>
  <rect x="48" y="184" width="128" height="6" rx="3" fill="#e5e7eb"/>
  <rect x="48" y="196" width="100" height="6" rx="3" fill="#e5e7eb"/>
  <rect x="224" y="168" width="80" height="8" rx="4" fill="#3b82f6" opacity="0.7"/>
  <rect x="224" y="184" width="128" height="6" rx="3" fill="#e5e7eb"/>
  <rect x="224" y="196" width="100" height="6" rx="3" fill="#e5e7eb"/>
  <!-- 主色标签 -->
  <rect x="32" y="280" width="80" height="14" rx="3" fill="#3b82f6" opacity="0.15"/>
  <text x="42" y="291" font-family="monospace" font-size="9" fill="#3b82f6">default</text>
  <text x="120" y="291" font-family="sans-serif" font-size="10" fill="#6b7280">默认蓝</text>
</svg>
